<svg xmlns="http://www.w3.org/2000/svg" viewBox="0 0 47.5 47.5" id="cloth"><defs><clipPath id="a"><path d="M0 38h38V0H0v38Z"></path></clipPath></defs><g clip-path="url(#a)" transform="matrix(1.25 0 0 -1.25 0 47.5)"><path fill="#55acee" d="M23.42 25.153 27 35s-.398-.002-1-.034V37h-2v-2.219c-2.271-.303-5-1.028-5-2.781 0 1.753-2.729 2.478-5 2.781V37h-2v-2.034c-.601.032-1 .034-1 .034l3.581-9.847L2 11.357S8 1 19 1s17 10.357 17 10.357L23.42 25.153Z"></path><path fill="#bbddf5" d="M24 24H14v2h10v-2z"></path><path fill="#3b88c3" d="M16 24s-6.734-8.106-5.051-9.006C12.633 14.093 16 24 16 24M22.096 24s6.734-8.105 5.051-9.007c-1.684-.9-5.051 9.007-5.051 9.007M19 24s-2-11 0-11 0 11 0 11"></path></g></svg>